<svg data-v-fde0c5aa="" xmlns="http://www.w3.org/2000/svg" viewBox="0 0 300 300" class="iconLeft"><!----><defs data-v-fde0c5aa=""><!----></defs><rect data-v-fde0c5aa="" fill="none" x="0" y="0" width="202" height="20" class="logo-background-square"></rect><defs data-v-fde0c5aa=""><!----></defs><g data-v-fde0c5aa="" id="d979d2ae-f584-4849-87b2-72f785c6ca0b" fill="#283543" transform="matrix(2.946892669603988,0,0,2.946892669603988,106.02485450022182,124.36203363392653)"><path d="M5.07 9.17L5.33 8.25L5.92 8.25L5.92 10.82L5.33 10.82L5.03 9.86L3.21 9.86L3.21 12.88L6.08 12.88L6.44 11.59L7.06 11.59L7.06 13.72L0.53 13.72L0.53 13.20L1.82 12.91L1.82 5.96L0.53 5.67L0.53 5.15L6.73 5.15L6.73 7.06L6.10 7.06L5.81 5.95L3.21 5.95L3.21 9.17L5.07 9.17ZM12.88 13.06Q12.35 13.45 11.79 13.66Q11.23 13.86 10.56 13.86L10.56 13.86Q9.77 13.86 9.22 13.38Q8.67 12.89 8.39 12.09Q8.12 11.28 8.12 10.32L8.12 10.32Q8.12 8.62 8.95 7.67Q9.77 6.71 11.24 6.71L11.24 6.71Q11.61 6.71 11.96 6.78Q12.32 6.85 12.57 6.93Q12.82 7.01 12.84 7.04L12.84 7.04L12.84 4.63L11.63 4.49L11.63 4.06L13.78 3.53L14.22 3.53L14.22 12.80L15.43 13.09L15.43 13.55Q14.66 13.78 13.92 13.78L13.92 13.78Q13.57 13.78 13.26 13.58Q12.95 13.38 12.88 13.06L12.88 13.06ZM11.21 12.95Q11.66 12.95 12.10 12.78Q12.54 12.61 12.84 12.42L12.84 12.42L12.84 7.87Q12.21 7.46 11.41 7.46L11.41 7.46Q10.54 7.46 10.09 8.21Q9.63 8.96 9.63 10.28L9.63 10.28Q9.63 11.51 10.02 12.23Q10.42 12.95 11.21 12.95L11.21 12.95ZM23.74 13.55Q22.95 13.78 22.25 13.78L22.25 13.78Q21.88 13.78 21.57 13.58Q21.25 13.38 21.20 13.05L21.20 13.05Q20.47 13.43 19.86 13.64Q19.25 13.86 18.62 13.86L18.62 13.86Q17.75 13.86 17.36 13.39Q16.97 12.92 16.97 12.21L16.97 12.21L16.97 7.81L15.78 7.67L15.78 7.24L17.92 6.71L18.37 6.71L18.37 11.96Q18.37 12.46 18.59 12.68Q18.80 12.91 19.42 12.91L19.42 12.91Q19.75 12.91 20.24 12.78Q20.73 12.64 21.13 12.46L21.13 12.46L21.13 7.81L19.92 7.67L19.92 7.24L22.06 6.71L22.53 6.71L22.53 12.80L23.74 13.09L23.74 13.55ZM30.31 5.67L30.31 5.15L33.52 5.15L33.52 5.67L32.35 5.95L32.35 13.72L31.28 13.86L26.53 7.03L26.53 12.91L27.72 13.20L27.72 13.72L24.53 13.72L24.53 13.20L25.66 12.91L25.66 5.95L24.53 5.67L24.53 5.15L26.85 5.15L31.50 11.76L31.50 5.95L30.31 5.67ZM37.52 13.87Q35.87 13.87 35.08 12.94Q34.30 12.01 34.30 10.32L34.30 10.32Q34.30 8.51 35.10 7.61Q35.91 6.71 37.37 6.71L37.37 6.71Q38.75 6.71 39.40 7.35Q40.05 7.99 40.05 9.37L40.05 9.37Q40.05 9.73 40.01 10.14L40.01 10.14L35.81 10.14L35.81 10.54Q35.81 11.77 36.34 12.40Q36.86 13.03 37.83 13.03L37.83 13.03Q38.72 13.03 39.87 12.71L39.87 12.71L39.97 13.20Q39.41 13.55 38.84 13.71Q38.26 13.87 37.52 13.87L37.52 13.87ZM35.84 9.56L38.60 9.41L38.60 9.10Q38.60 8.29 38.33 7.89Q38.07 7.49 37.45 7.49L37.45 7.49Q36.61 7.49 36.25 7.97Q35.90 8.46 35.84 9.56L35.84 9.56ZM47.64 13.17L47.64 13.72L44.41 13.72L44.41 13.17L45.09 12.96L43.81 11.13L42.60 12.95L43.40 13.17L43.40 13.72L40.49 13.72L40.49 13.19L41.51 12.91L43.25 10.35L41.33 7.56L40.59 7.36L40.59 6.85L43.43 6.85L43.43 7.41L42.81 7.52L44.11 9.38L45.32 7.56L44.53 7.39L44.53 6.85L47.24 6.85L47.24 7.39L46.45 7.53L44.66 10.15L46.59 12.92L47.64 13.17ZM52.05 13.55Q51.65 13.66 50.97 13.76Q50.29 13.85 49.92 13.85L49.92 13.85Q48.79 13.85 48.79 12.71L48.79 12.71L48.79 7.64L47.77 7.64L47.77 7.10L48.92 6.69L49.53 5.29L50.16 5.29L50.16 6.85L52.25 6.85L52.25 7.76L50.16 7.64L50.16 12.80L52.05 13.08L52.05 13.55Z"></path></g><defs data-v-fde0c5aa=""><linearGradient data-v-fde0c5aa="" gradientTransform="rotate(25)" id="a8c12619-1c22-49ce-8b32-88af458e6c05" x1="0%" y1="0%" x2="100%" y2="0%"><stop data-v-fde0c5aa="" offset="0%" stop-color="#D0E90D" stop-opacity="1"></stop><stop data-v-fde0c5aa="" offset="100%" stop-color="#1536F1" stop-opacity="1"></stop></linearGradient></defs><g data-v-fde0c5aa="" id="26d1895e-5114-4a15-8f14-3d1594ffe413" stroke="none" fill="url(#a8c12619-1c22-49ce-8b32-88af458e6c05)" transform="matrix(0.11296338346093235,0,0,0.11296338346093235,38.37712987685964,120.24197139987534)"><path d="M412.27 229.96c-.82 0-1.63.02-2.44.02.03-.16.05-.32.05-.5-3.16-36.86-22.19-72.1-50.19-96.63-58.85-52.51-152.02-52.52-210.21 1-27.07 24.51-45.37 59.45-47.71 95.7-1.46.02-2.92.04-4.38.07-.72.01-1.4.46-1.67 1.18-.35.94.12 1.99 1.06 2.34 6.3 2.38 12.69 4.44 19.1 6.43 91.47 26.67 206.46 23.06 297-6.08.71-.24 1.23-.91 1.23-1.71 0-1.02-.83-1.83-1.84-1.82zm-5.96.05c-5.98.09-11.92.28-17.88.46l13.19-13.19c1.71 4.14 3.29 8.38 4.69 12.73zm-6.82-17.66l-18.33 18.33c-5.35.19-10.77.35-16.22.51l29.36-29.36c1.84 3.42 3.57 6.92 5.19 10.52zm-7.73-15.05l-34.1 34.1-16.16.45 44.2-44.2c2.12 3.13 4.14 6.34 6.06 9.65zm-8.97-13.81l-48.57 48.57-1.07.03c-1.26.04-2.53.06-3.79.09.09-3.64.07-7.27-.08-10.88l46.65-46.64c2.37 2.84 4.66 5.79 6.86 8.83zm-10.15-12.63l-43.81 43.8c-.4-4.65-1.01-9.28-1.83-13.87l37.96-37.96c2.64 2.59 5.21 5.26 7.68 8.03zm-11.31-11.46l-35.51 35.51c-.92-4.17-2.01-8.32-3.27-12.44l30.32-30.32c2.89 2.31 5.71 4.73 8.46 7.25zm-12.47-10.31l-28.05 28.05-4-11.7 22.75-22.75c3.17 2.01 6.27 4.14 9.3 6.4zm-13.67-9.1l-20.18 20.18-.58-1.7c-2.54-7.43.33-15.52 6.98-19.69l5.43-3.4c2.83 1.44 5.61 2.98 8.35 4.61zm-178.26 90.39c-16.88-.45-33.72-1.02-50.64-.89 11.31-31.47 30.6-59.26 56.95-79.2 49.41-37.41 109.32-40.4 158.32-17.51l-2.81 1.76c-8.63 5.41-12.35 15.91-9.06 25.54l6.58 19.24a152.87 152.87 0 015.56 21.07c.01.03.01.07.02.1 1.97 10.48 2.79 21.11 2.5 31.81-55.89 1.27-111.52-.34-167.42-1.92z"></path><path d="M495.69 259.42l-2.39.09c-20.21-16.76-36.24-37.83-45.83-61.31-.93-2.31-2.69-6.9-3.54-9.15-8.79-22.66-21.8-43.55-38.18-61.57-18.22-20.15-40.65-36.43-65.3-47.84-86.8-39.94-192.12-13.74-248.36 63.91-8.19 11.26-15.25 23.39-20.86 36.14-1.09 2.38-3.04 7.15-3.97 9.61-.98 2.45-2.46 6.63-3.53 8.98-9.91 23.7-25.96 44.58-45.78 61.25-.55-.04-1.1-.08-1.65-.11a1.79 1.79 0 00-1.87 1.32c-.26.96.3 1.94 1.26 2.2 9.75 2.66 19.55 5.16 29.38 7.57a926.01 926.01 0 0022 4.73c-.21 22.88 4.05 46.05 12.43 67.84 22.25 59.18 76.05 105.85 138.32 118.45C334.91 486.8 447.09 394.85 444.99 276a794.9 794.9 0 0022.02-4.96c9.82-2.52 19.59-5.21 29.3-8.1.76-.23 1.31-.95 1.28-1.78-.03-1.01-.89-1.8-1.9-1.74zM433 305.11c-24.34 77.35-94.8 135.46-177 135.67-94.18.91-170.31-73.67-184.47-164.66 9.2 1.82 18.42 3.51 27.67 5.08.23 58.84 40.98 114.5 95.72 136 99.36 40.43 213.04-28.13 217.54-135.03a815.9 815.9 0 0027.67-5.17c-1.82 9.58-4.19 18.97-7.13 28.11zm-204.9 85.5c.3.12.61.18.92.18 1 0 1.94-.6 2.33-1.58l2.16-5.45a40.578 40.578 0 0117.48-20.19c28.27-16.21 50.85-41.06 64.34-70.6 30.67-1.72 61.25-4.98 91.55-9.89-3.78 15.23-9.48 29.71-17.09 42.95-36.61 64.93-116.06 95.04-185.93 68.37-33.93-12.76-62.54-37.25-80.88-68.74-7.83-13.36-13.74-27.98-17.84-43.47 67.45 10.36 136.21 14.51 204.52 11.1-13.18 27.54-34.56 50.7-61.16 65.94-8.89 5.1-15.87 13.16-19.64 22.69l-2.16 5.45a2.48 2.48 0 001.4 3.24zm237.38-129.58c-109.61 6.87-219.31 11.65-329.09 6.03-37.25-1.75-74.73-4.51-111.97-7.08 23.14-13.91 42.75-35.01 55.22-59.76 21.27-44.75 57.53-80.38 103.38-99.49 69.3-29.09 150.44-14.47 205.3 36.95 9.25 8.62 17.78 18.2 25.22 28.43 4.72 6.42 8.98 13.2 12.91 20.14 1.52 2.82 3.07 5.62 4.45 8.52 12.04 26.55 31.82 49.68 55.9 65.01-7.13.33-14.24.74-21.32 1.25z"></path></g><!----></svg>